# xmcd
#
# Track frame offsets: 
#        150
#        14616
#        33910
#        53399
#        67242
#        85219
#        100838
#        116227
#        134824
#        150294
#        170086
#
# Disc length: 2513 seconds
#
# Revision: 0
# Processed by: cddbd v1.5.2PL0 Copyright (c) Steve Scherf et al.
# Submitted via: ExactAudioCopyFreeDBPlugin 1.0
#
DISCID=9309cf0b
DTITLE=Craven Family Band - The Flower Grown
DYEAR=2014
DGENRE=Old-Time
TTITLE0=Smokey Milltown Home
TTITLE1=City Streets
TTITLE2=Love of Steel
TTITLE3=Leavin' The Ozarks
TTITLE4=The Wind Is Free
TTITLE5=Dear Hearts and Gentle People
TTITLE6=Old Yankee Town
TTITLE7=Salt Spring
TTITLE8=Between Us
TTITLE9=Life's Railway to Heaven
TTITLE10=Angel Band
EXTD=
EXTT0=
EXTT1=
EXTT2=
EXTT3=
EXTT4=
EXTT5=
EXTT6=
EXTT7=
EXTT8=
EXTT9=
EXTT10=
PLAYORDER=
